RobotoDelta-XOPQmax.ufo
<glyph name="six" format="1">
  <advance width="1453"/>
  <unicode hex="0036"/>
  <outline>
    <contour>
      <point x="89" y="635" type="qcurve" smooth="yes"/>
      <point x="89" y="652" type="line" smooth="yes"/>
      <point x="89" y="1020"/>
      <point x="579" y="1488"/>
      <point x="1055" y="1488" type="qcurve" smooth="yes"/>
      <point x="1137" y="1488" type="line"/>
      <point x="1137" y="1331" type="line"/>
      <point x="1039" y="1331" type="line" smooth="yes"/>
      <point x="802" y="1331"/>
      <point x="434" y="1054"/>
      <point x="434" y="652" type="qcurve" smooth="yes"/>
      <point x="434" y="603" type="line" smooth="yes"/>
      <point x="434" y="331"/>
      <point x="627" y="112"/>
      <point x="752" y="112" type="qcurve" smooth="yes"/>
      <point x="872" y="112"/>
      <point x="1036" y="294"/>
      <point x="1036" y="466" type="qcurve" smooth="yes"/>
      <point x="1036" y="641"/>
      <point x="875" y="817"/>
      <point x="751" y="817" type="qcurve" smooth="yes"/>
      <point x="610" y="817"/>
      <point x="387" y="646"/>
      <point x="301" y="520" type="qcurve"/>
      <point x="301" y="720" type="line"/>
      <point x="335" y="772"/>
      <point x="608" y="971"/>
      <point x="812" y="971" type="qcurve" smooth="yes"/>
      <point x="1075" y="971"/>
      <point x="1380" y="692"/>
      <point x="1380" y="475" type="qcurve" smooth="yes"/>
      <point x="1380" y="258"/>
      <point x="1033" y="-40"/>
      <point x="757" y="-40" type="qcurve" smooth="yes"/>
      <point x="475" y="-40"/>
      <point x="89" y="272"/>
    </contour>
  </outline>
</glyph>
<glyph name="seven" format="2">
  <advance width="1156"/>
  <unicode hex="0037"/>
  <outline>
    <contour>
      <point x="190" y="0" type="line"/>
      <point x="590" y="0" type="line"/>
      <point x="1150" y="1352" type="line"/>
      <point x="1150" y="1456" type="line"/>
      <point x="-22" y="1456" type="line"/>
      <point x="-22" y="1300" type="line"/>
      <point x="740" y="1300" type="line"/>
    </contour>
  </outline>
</glyph>
<glyph name="B" format="1">
  <advance width="1557"/>
  <unicode hex="0042"/>
  <outline>
    <contour>
      <point x="170" y="0" type="line"/>
      <point x="170" y="1456" type="line"/>
      <point x="838" y="1456" type="line" smooth="yes"/>
      <point x="1170" y="1456"/>
      <point x="1437" y="1265"/>
      <point x="1437" y="1093" type="qcurve" smooth="yes"/>
      <point x="1437" y="946"/>
      <point x="1289" y="802"/>
      <point x="1163" y="774" type="qcurve"/>
      <point x="1163" y="761" type="line"/>
      <point x="1315" y="733"/>
      <point x="1483" y="566"/>
      <point x="1483" y="415" type="qcurve" smooth="yes"/>
      <point x="1483" y="210"/>
      <point x="1196" y="0"/>
      <point x="877" y="0" type="qcurve" smooth="yes"/>
    </contour>
    <contour>
      <point x="511" y="836" type="line"/>
      <point x="801" y="836" type="line" smooth="yes"/>
      <point x="925" y="836"/>
      <point x="1077" y="960"/>
      <point x="1077" y="1070" type="qcurve" smooth="yes"/>
      <point x="1077" y="1189"/>
      <point x="938" y="1298"/>
      <point x="795" y="1298" type="qcurve" smooth="yes"/>
      <point x="511" y="1298" type="line"/>
    </contour>
    <contour>
      <point x="511" y="157" type="line"/>
      <point x="828" y="157" type="line" smooth="yes"/>
      <point x="965" y="157"/>
      <point x="1117" y="299"/>
      <point x="1117" y="418" type="qcurve" smooth="yes"/>
      <point x="1117" y="539"/>
      <point x="983" y="681"/>
      <point x="837" y="681" type="qcurve" smooth="yes"/>
      <point x="511" y="681" type="line"/>
    </contour>
  </outline>
</glyph>
<glyph name="D" format="2">
  <advance width="2294"/>
  <unicode hex="0044"/>
  <outline>
    <contour>
      <point x="170" y="0" type="line"/>
      <point x="1090" y="0" type="line" smooth="yes"/>
      <point x="1593" y="0"/>
      <point x="2179" y="370"/>
      <point x="2179" y="682" type="qcurve" smooth="yes"/>
      <point x="2179" y="774" type="line" smooth="yes"/>
      <point x="2179" y="1086"/>
      <point x="1593" y="1456"/>
      <point x="1090" y="1456" type="qcurve" smooth="yes"/>
      <point x="170" y="1456" type="line"/>
    </contour>
    <contour>
      <point x="820" y="158" type="line"/>
      <point x="820" y="1298" type="line"/>
      <point x="1060" y="1298" type="line" smooth="yes"/>
      <point x="1270" y="1298"/>
      <point x="1519" y="1020"/>
      <point x="1519" y="774" type="qcurve" smooth="yes"/>
      <point x="1519" y="682" type="line" smooth="yes"/>
      <point x="1519" y="436"/>
      <point x="1270" y="158"/>
      <point x="1060" y="158" type="qcurve" smooth="yes"/>
    </contour>
  </outline>
</glyph>
<glyph name="I" format="2">
  <advance width="1000"/>
  <unicode hex="0049"/>
  <outline>
    <contour>
      <point x="175" y="0" type="line"/>
      <point x="825" y="0" type="line"/>
      <point x="825" y="1456" type="line"/>
      <point x="175" y="1456" type="line"/>
    </contour>
  </outline>
</glyph>
<glyph name="K" format="1">
  <advance width="1517"/>
  <unicode hex="004B"/>
  <outline>
    <contour>
      <point x="1107" y="0" type="line"/>
      <point x="577" y="703" type="line"/>
      <point x="795" y="953" type="line"/>
      <point x="1537" y="0" type="line"/>
    </contour>
    <contour>
      <point x="170" y="0" type="line"/>
      <point x="170" y="1456" type="line"/>
      <point x="522" y="1456" type="line"/>
      <point x="522" y="730" type="line"/>
      <point x="575" y="794" type="line"/>
      <point x="1167" y="1456" type="line"/>
      <point x="1401" y="1456" type="line"/>
      <point x="522" y="506" type="line"/>
      <point x="522" y="0" type="line"/>
    </contour>
  </outline>
</glyph>
<glyph name="V" format="1">
  <advance width="1622"/>
  <unicode hex="0056"/>
  <outline>
    <contour>
      <point x="28" y="1456" type="line"/>
      <point x="393" y="1456" type="line"/>
      <point x="779" y="380" type="line" smooth="yes"/>
      <point x="789" y="352"/>
      <point x="811" y="265"/>
      <point x="815" y="244" type="qcurve"/>
      <point x="826" y="244" type="line"/>
      <point x="831" y="266"/>
      <point x="850" y="350"/>
      <point x="860" y="378" type="qcurve" smooth="yes"/>
      <point x="1250" y="1456" type="line"/>
      <point x="1446" y="1456" type="line"/>
      <point x="907" y="-10" type="line"/>
      <point x="568" y="-10" type="line"/>
    </contour>
  </outline>
</glyph>
<glyph name="Z" format="1">
  <advance width="1271"/>
  <unicode hex="005A"/>
  <outline>
    <contour>
      <point x="36" y="0" type="line"/>
      <point x="36" y="145" type="line"/>
      <point x="834" y="1298" type="line"/>
      <point x="49" y="1298" type="line"/>
      <point x="49" y="1456" type="line"/>
      <point x="1205" y="1456" type="line"/>
      <point x="1205" y="1279" type="line"/>
      <point x="438" y="157" type="line"/>
      <point x="1235" y="157" type="line"/>
      <point x="1235" y="0" type="line"/>
    </contour>
  </outline>
</glyph>
<glyph name="bracketright" format="1">
  <advance width="858"/>
  <unicode hex="005D"/>
  <outline>
    <contour>
      <point x="711" y="-312" type="line"/>
      <point x="28" y="-312" type="line"/>
      <point x="28" y="-152" type="line"/>
      <point x="369" y="-152" type="line"/>
      <point x="369" y="1296" type="line"/>
      <point x="28" y="1296" type="line"/>
      <point x="28" y="1456" type="line"/>
      <point x="711" y="1456" type="line"/>
    </contour>
  </outline>
</glyph>
<glyph name="c" format="1">
  <advance width="1372"/>
  <unicode hex="0063"/>
  <outline>
    <contour>
      <point x="85" y="524" type="qcurve" smooth="yes"/>
      <point x="85" y="538" type="line" smooth="yes"/>
      <point x="85" y="763"/>
      <point x="418" y="1092"/>
      <point x="737" y="1092" type="qcurve" smooth="yes"/>
      <point x="1054" y="1092"/>
      <point x="1336" y="838"/>
      <point x="1336" y="694" type="qcurve" smooth="yes"/>
      <point x="1336" y="690" type="line"/>
      <point x="1005" y="690" type="line"/>
      <point x="1005" y="693" type="line" smooth="yes"/>
      <point x="1005" y="768"/>
      <point x="896" y="940"/>
      <point x="750" y="940" type="qcurve" smooth="yes"/>
      <point x="604" y="940"/>
      <point x="457" y="720"/>
      <point x="457" y="538" type="qcurve" smooth="yes"/>
      <point x="457" y="524" type="line" smooth="yes"/>
      <point x="457" y="345"/>
      <point x="601" y="112"/>
      <point x="750" y="112" type="qcurve" smooth="yes"/>
      <point x="884" y="112"/>
      <point x="1005" y="235"/>
      <point x="1005" y="327" type="qcurve" smooth="yes"/>
      <point x="1005" y="332" type="line"/>
      <point x="1336" y="332" type="line"/>
      <point x="1336" y="327" type="line" smooth="yes"/>
      <point x="1336" y="191"/>
      <point x="1032" y="-40"/>
      <point x="737" y="-40" type="qcurve" smooth="yes"/>
      <point x="397" y="-40"/>
      <point x="85" y="311"/>
    </contour>
    <contour>
      <point x="726.0" y="0.0" type="move" name="bottom"/>
    </contour>
  </outline>
</glyph>
<glyph name="f" format="1">
  <advance width="602"/>
  <unicode hex="0066"/>
  <outline>
    <contour>
      <point x="197" y="0" type="line"/>
      <point x="197" y="1196" type="line" smooth="yes"/>
      <point x="197" y="1370"/>
      <point x="387" y="1557"/>
      <point x="552" y="1557" type="qcurve" smooth="yes"/>
      <point x="659" y="1557"/>
      <point x="774" y="1551"/>
      <point x="831" y="1542" type="qcurve"/>
      <point x="821" y="1390" type="line"/>
      <point x="791" y="1394"/>
      <point x="739" y="1399"/>
      <point x="700" y="1399" type="qcurve" smooth="yes"/>
      <point x="611" y="1399"/>
      <point x="540" y="1294"/>
      <point x="541" y="1196" type="qcurve" smooth="yes"/>
      <point x="541" y="1004" type="line"/>
      <point x="541" y="974" type="line"/>
      <point x="541" y="0" type="line"/>
    </contour>
    <contour>
      <point x="26" y="910" type="line"/>
      <point x="26" y="1052" type="line"/>
      <point x="350" y="1052" type="line"/>
      <point x="382" y="1052" type="line"/>
      <point x="770" y="1052" type="line"/>
      <point x="770" y="910" type="line"/>
    </contour>
  </outline>
</glyph>
<glyph name="k" format="1">
  <advance width="1348"/>
  <unicode hex="006B"/>
  <outline>
    <contour>
      <point x="946" y="0" type="line"/>
      <point x="561" y="512" type="line"/>
      <point x="786" y="730" type="line"/>
      <point x="1332" y="0" type="line"/>
    </contour>
    <contour>
      <point x="146" y="0" type="line"/>
      <point x="146" y="1536" type="line"/>
      <point x="492" y="1536" type="line"/>
      <point x="492" y="526" type="line"/>
      <point x="502" y="542"/>
      <point x="543" y="587"/>
      <point x="555" y="600" type="qcurve" smooth="yes"/>
      <point x="992" y="1052" type="line"/>
      <point x="1213" y="1052" type="line"/>
      <point x="492" y="291" type="line"/>
      <point x="492" y="0" type="line"/>
    </contour>
  </outline>
</glyph>
<glyph name="o" format="1">
  <advance width="1490"/>
  <unicode hex="006F"/>
  <outline>
    <contour>
      <point x="85" y="509" type="qcurve" smooth="yes"/>
      <point x="85" y="542" type="line" smooth="yes"/>
      <point x="85" y="765"/>
      <point x="425" y="1092"/>
      <point x="744" y="1092" type="qcurve" smooth="yes"/>
      <point x="1075" y="1092"/>
      <point x="1405" y="771"/>
      <point x="1405" y="542" type="qcurve" smooth="yes"/>
      <point x="1405" y="509" type="line" smooth="yes"/>
      <point x="1405" y="286"/>
      <point x="1067" y="-40"/>
      <point x="747" y="-40" type="qcurve" smooth="yes"/>
      <point x="425" y="-40"/>
      <point x="85" y="286"/>
    </contour>
    <contour>
      <point x="439" y="542" type="qcurve" smooth="yes"/>
      <point x="439" y="509" type="line" smooth="yes"/>
      <point x="439" y="335"/>
      <point x="592" y="112"/>
      <point x="746" y="112" type="qcurve" smooth="yes"/>
      <point x="897" y="112"/>
      <point x="1051" y="335"/>
      <point x="1051" y="509" type="qcurve" smooth="yes"/>
      <point x="1051" y="542" type="line" smooth="yes"/>
      <point x="1051" y="714"/>
      <point x="897" y="940"/>
      <point x="744" y="940" type="qcurve" smooth="yes"/>
      <point x="592" y="940"/>
      <point x="439" y="714"/>
    </contour>
    <contour>
      <point x="744" y="1052" type="move" name="top"/>
    </contour>
  </outline>
</glyph>
<glyph name="v" format="1">
  <advance width="1259"/>
  <unicode hex="0076"/>
  <outline>
    <contour>
      <point x="0" y="1052" type="line"/>
      <point x="367" y="1052" type="line"/>
      <point x="634" y="358" type="line" smooth="yes"/>
      <point x="649" y="318"/>
      <point x="684" y="233"/>
      <point x="692" y="200" type="qcurve"/>
      <point x="695" y="200" type="line"/>
      <point x="702" y="233"/>
      <point x="730" y="318"/>
      <point x="744" y="358" type="qcurve" smooth="yes"/>
      <point x="998" y="1052" type="line"/>
      <point x="1175" y="1052" type="line"/>
      <point x="775" y="0" type="line"/>
      <point x="402" y="0" type="line"/>
    </contour>
  </outline>
</glyph>
<glyph name="y" format="1">
  <advance width="1243"/>
  <unicode hex="0079"/>
  <outline>
    <contour>
      <point x="-40" y="-404" type="qcurve"/>
      <point x="-40" y="-253" type="line"/>
      <point x="10" y="-264"/>
      <point x="111" y="-275"/>
      <point x="174" y="-275" type="qcurve" smooth="yes"/>
      <point x="215" y="-275"/>
      <point x="334" y="-261"/>
      <point x="375" y="-216" type="qcurve" smooth="yes"/>
      <point x="387" y="-203" type="line"/>
      <point x="-91" y="1052" type="line"/>
      <point x="280" y="1052" type="line"/>
      <point x="518" y="359" type="line" smooth="yes"/>
      <point x="532" y="318"/>
      <point x="551" y="232"/>
      <point x="554" y="200" type="qcurve"/>
      <point x="556" y="200" type="line"/>
      <point x="560" y="232"/>
      <point x="580" y="316"/>
      <point x="594" y="358" type="qcurve" smooth="yes"/>
      <point x="822" y="1052" type="line"/>
      <point x="1009" y="1052" type="line"/>
      <point x="575" y="-168" type="line" smooth="yes"/>
      <point x="527" y="-303"/>
      <point x="353" y="-437"/>
      <point x="193" y="-437" type="qcurve" smooth="yes"/>
      <point x="111" y="-437"/>
      <point x="5" y="-423"/>
    </contour>
    <contour>
      <point x="625" y="1052" type="move" name="top"/>
    </contour>
  </outline>
</glyph>
<glyph name="section" format="2">
  <advance width="1573"/>
  <unicode hex="00A7"/>
  <outline>
    <contour>
      <point x="127" y="576" type="qcurve" smooth="yes"/>
      <point x="127.0" y="420.0"/>
      <point x="398.90471303009423" y="251.0"/>
      <point x="713" y="188" type="qcurve" smooth="yes"/>
      <point x="937.5819142614325" y="127.0"/>
      <point x="1092.0" y="19.0"/>
      <point x="1092.0" y="-72.0" type="qcurve" smooth="yes"/>
      <point x="1092.0" y="-173.0"/>
      <point x="928.0" y="-296.0"/>
      <point x="775.0" y="-296.0" type="qcurve" smooth="yes"/>
      <point x="621.0" y="-296.0"/>
      <point x="450.0" y="-176.0"/>
      <point x="450.0" y="-56.0" type="qcurve" smooth="yes"/>
      <point x="450.0" y="-44.0" type="line"/>
      <point x="100.0" y="-44.0" type="line"/>
      <point x="100.0" y="-56.0" type="line" smooth="yes"/>
      <point x="100.0" y="-236.0"/>
      <point x="468.0" y="-446.0"/>
      <point x="775.0" y="-446.0" type="qcurve" smooth="yes"/>
      <point x="1082.0" y="-446.0"/>
      <point x="1442.0" y="-236.0"/>
      <point x="1442.0" y="-72.0" type="qcurve" smooth="yes"/>
      <point x="1442.0" y="92.0"/>
      <point x="1153.4981518042287" y="273.0"/>
      <point x="846.0" y="333.0" type="qcurve" smooth="yes"/>
      <point x="624.7640510962389" y="394.0"/>
      <point x="477.0" y="493.0"/>
      <point x="477.0" y="576.0" type="qcurve" smooth="yes"/>
      <point x="477.0" y="676.0"/>
      <point x="617.0" y="787.0"/>
      <point x="765" y="787" type="qcurve"/>
      <point x="566" y="900" type="line"/>
      <point x="362.4460464083827" y="860.0"/>
      <point x="127.0" y="693.0"/>
    </contour>
    <contour>
      <point x="158" y="1125" type="qcurve" smooth="yes"/>
      <point x="158.0" y="969.0"/>
      <point x="429.4309736756244" y="800.0"/>
      <point x="744.0" y="737.0" type="qcurve" smooth="yes"/>
      <point x="969.3072195389035" y="676.0"/>
      <point x="1123.0" y="568.0"/>
      <point x="1123.0" y="477.0" type="qcurve" smooth="yes"/>
      <point x="1123.0" y="376.0"/>
      <point x="959.0" y="253.0"/>
      <point x="806.0" y="253.0" type="qcurve"/>
      <point x="1066" y="150" type="line"/>
      <point x="1242.8884171288175" y="195.0"/>
      <point x="1473.0" y="366.0"/>
      <point x="1473.0" y="477.0" type="qcurve" smooth="yes"/>
      <point x="1473.0" y="641.0"/>
      <point x="1184.0807506111282" y="822.0"/>
      <point x="877.0" y="882.0" type="qcurve" smooth="yes"/>
      <point x="656.5668970198312" y="943.0"/>
      <point x="508.0" y="1042.0"/>
      <point x="508.0" y="1125.0" type="qcurve" smooth="yes"/>
      <point x="508.0" y="1225.0"/>
      <point x="648.0" y="1336.0"/>
      <point x="796.0" y="1336.0" type="qcurve" smooth="yes"/>
      <point x="944.0" y="1336.0"/>
      <point x="1094.0" y="1207.0"/>
      <point x="1094.0" y="1101.0" type="qcurve" smooth="yes"/>
      <point x="1094.0" y="1090.0" type="line"/>
      <point x="1444.0" y="1090.0" type="line"/>
      <point x="1444.0" y="1101.0" type="line" smooth="yes"/>
      <point x="1444.0" y="1262.0"/>
      <point x="1093.0" y="1486.0"/>
      <point x="796.0" y="1486.0" type="qcurve" smooth="yes"/>
      <point x="497.0" y="1486.0"/>
      <point x="158.0" y="1280.0"/>
    </contour>
  </outline>
</glyph>
<glyph name="dieresis" format="2">
  <advance width="1024"/>
  <unicode hex="00A8"/>
  <outline>
    <contour>
      <point x="54" y="1257" type="qcurve" smooth="yes"/>
      <point x="54" y="1210"/>
      <point x="147" y="1146"/>
      <point x="230" y="1146" type="qcurve" smooth="yes"/>
      <point x="313" y="1146"/>
      <point x="406" y="1210"/>
      <point x="406" y="1257" type="qcurve" smooth="yes"/>
      <point x="406" y="1304"/>
      <point x="313" y="1368"/>
      <point x="230" y="1368" type="qcurve" smooth="yes"/>
      <point x="147" y="1368"/>
      <point x="54" y="1304"/>
    </contour>
    <contour>
      <point x="618" y="1257" type="qcurve" smooth="yes"/>
      <point x="618" y="1210"/>
      <point x="711" y="1146"/>
      <point x="794" y="1146" type="qcurve" smooth="yes"/>
      <point x="877" y="1146"/>
      <point x="970" y="1210"/>
      <point x="970" y="1257" type="qcurve" smooth="yes"/>
      <point x="970" y="1304"/>
      <point x="877" y="1368"/>
      <point x="794" y="1368" type="qcurve" smooth="yes"/>
      <point x="711" y="1368"/>
      <point x="618" y="1304"/>
    </contour>
  </outline>
</glyph>
<glyph name="oe" format="2">
  <advance width="2272"/>
  <unicode hex="0153"/>
  <guideline x="950" y="348" angle="90.0" identifier="Rfr3xOwhE9"/>
  <outline>
    <contour>
      <point x="85" y="510" type="line" smooth="yes"/>
      <point x="85" y="272"/>
      <point x="437" y="-30"/>
      <point x="731" y="-30" type="qcurve" smooth="yes"/>
      <point x="885" y="-30"/>
      <point x="1136" y="79"/>
      <point x="1200" y="174" type="qcurve"/>
      <point x="1259" y="80"/>
      <point x="1509" y="-30"/>
      <point x="1673" y="-30" type="qcurve" smooth="yes"/>
      <point x="1860" y="-30"/>
      <point x="2128" y="102"/>
      <point x="2182" y="175" type="qcurve"/>
      <point x="1962" y="270" type="line"/>
      <point x="1918" y="212"/>
      <point x="1774" y="122"/>
      <point x="1673" y="122" type="qcurve" smooth="yes"/>
      <point x="1521" y="122"/>
      <point x="1377" y="347"/>
      <point x="1377" y="510" type="qcurve" smooth="yes"/>
      <point x="1377" y="542" type="line" smooth="yes"/>
      <point x="1377" y="705"/>
      <point x="1518" y="930"/>
      <point x="1653" y="930" type="qcurve" smooth="yes"/>
      <point x="1753" y="930"/>
      <point x="1880" y="760"/>
      <point x="1880" y="632" type="qcurve"/>
      <point x="1880" y="632" type="line"/>
      <point x="1211" y="632" type="line"/>
      <point x="1211" y="484" type="line"/>
      <point x="2220" y="484" type="line"/>
      <point x="2220" y="560" type="line" smooth="yes"/>
      <point x="2220" y="800"/>
      <point x="1923" y="1082"/>
      <point x="1653" y="1082" type="qcurve" smooth="yes"/>
      <point x="1505" y="1082"/>
      <point x="1260" y="972"/>
      <point x="1200" y="878" type="qcurve"/>
      <point x="1136" y="973"/>
      <point x="885" y="1082"/>
      <point x="731" y="1082" type="qcurve" smooth="yes"/>
      <point x="437" y="1082"/>
      <point x="85" y="780"/>
      <point x="85" y="542" type="qcurve" smooth="yes"/>
    </contour>
    <contour>
      <point x="435" y="510" type="qcurve" smooth="yes"/>
      <point x="435" y="542" type="line" smooth="yes"/>
      <point x="435" y="705"/>
      <point x="584" y="930"/>
      <point x="731" y="930" type="qcurve" smooth="yes"/>
      <point x="878" y="930"/>
      <point x="1027" y="705"/>
      <point x="1027" y="542" type="qcurve" smooth="yes"/>
      <point x="1027" y="510" type="line" smooth="yes"/>
      <point x="1027" y="347"/>
      <point x="878" y="122"/>
      <point x="731" y="122" type="qcurve" smooth="yes"/>
      <point x="584" y="122"/>
      <point x="435" y="347"/>
    </contour>
  </outline>
</glyph>
<glyph name="ring" format="1">
  <advance width="1251"/>
  <unicode hex="02DA"/>
  <outline>
    <contour>
      <point x="272" y="1359" type="qcurve" smooth="yes"/>
      <point x="272" y="1441"/>
      <point x="460" y="1590"/>
      <point x="625" y="1590" type="qcurve" smooth="yes"/>
      <point x="790" y="1590"/>
      <point x="979" y="1441"/>
      <point x="979" y="1359" type="qcurve" smooth="yes"/>
      <point x="979" y="1274"/>
      <point x="790" y="1132"/>
      <point x="625" y="1132" type="qcurve" smooth="yes"/>
      <point x="461" y="1132"/>
      <point x="272" y="1274"/>
    </contour>
    <contour>
      <point x="539" y="1359" type="qcurve" smooth="yes"/>
      <point x="539" y="1301"/>
      <point x="603" y="1244"/>
      <point x="625" y="1244" type="qcurve" smooth="yes"/>
      <point x="648" y="1244"/>
      <point x="712" y="1299"/>
      <point x="712" y="1359" type="qcurve" smooth="yes"/>
      <point x="712" y="1419"/>
      <point x="648" y="1477"/>
      <point x="625" y="1477" type="qcurve" smooth="yes"/>
      <point x="603" y="1477"/>
      <point x="539" y="1419"/>
    </contour>
    <contour>
      <point x="626" y="1052" type="move" name="_top"/>
    </contour>
  </outline>
</glyph>
<glyph name="quoteleft" format="2">
  <advance width="548"/>
  <unicode hex="2018"/>
  <outline>
    <contour>
      <point x="120" y="1055" type="line"/>
      <point x="408" y="1055" type="line"/>
      <point x="408" y="1175" type="line" smooth="yes"/>
      <point x="408" y="1265"/>
      <point x="470" y="1399"/>
      <point x="533" y="1463" type="qcurve"/>
      <point x="354" y="1536" type="line"/>
      <point x="245" y="1469"/>
      <point x="120" y="1285"/>
      <point x="120" y="1175" type="qcurve" smooth="yes"/>
    </contour>
  </outline>
</glyph>
<glyph name="dagger" format="1">
  <advance width="1426"/>
  <unicode hex="2020"/>
  <outline>
    <contour>
      <point x="1356" y="1126" type="line"/>
      <point x="1356" y="925" type="line"/>
      <point x="713" y="948" type="line"/>
      <point x="70" y="925" type="line"/>
      <point x="70" y="1126" type="line"/>
      <point x="711" y="1103" type="line"/>
    </contour>
    <contour>
      <point x="826" y="-224" type="line"/>
      <point x="597" y="-228" type="line"/>
      <point x="540" y="525" type="line"/>
      <point x="575" y="1026" type="line"/>
      <point x="529" y="1516" type="line"/>
      <point x="896" y="1516" type="line"/>
      <point x="849" y="1026" type="line"/>
      <point x="885" y="526" type="line"/>
    </contour>
  </outline>
</glyph>
<glyph name="bullet" format="2">
  <advance width="970"/>
  <unicode hex="2022"/>
  <outline>
    <contour>
      <point x="164" y="734" type="line" smooth="yes"/>
      <point x="164" y="648"/>
      <point x="344" y="536"/>
      <point x="485" y="536" type="qcurve" smooth="yes"/>
      <point x="626" y="536"/>
      <point x="806" y="648"/>
      <point x="806" y="734" type="qcurve" smooth="yes"/>
      <point x="806" y="774" type="line" smooth="yes"/>
      <point x="806" y="860"/>
      <point x="626" y="972"/>
      <point x="485" y="972" type="qcurve" smooth="yes"/>
      <point x="344" y="972"/>
      <point x="164" y="860"/>
      <point x="164" y="774" type="qcurve" smooth="yes"/>
    </contour>
  </outline>
</glyph>
<glyph name="guilsinglright" format="2">
  <advance width="825"/>
  <unicode hex="203A"/>
  <outline>
    <contour>
      <point x="378" y="204" type="line"/>
      <point x="753" y="592" type="line"/>
      <point x="753" y="612" type="line"/>
      <point x="378" y="1000" type="line"/>
      <point x="36" y="1000" type="line"/>
      <point x="363" y="602" type="line"/>
      <point x="36" y="204" type="line"/>
    </contour>
  </outline>
</glyph>
<glyph name="fraction" format="2">
  <advance width="1138"/>
  <unicode hex="2044"/>
  <outline>
    <contour>
      <point x="30" y="58" type="line"/>
      <point x="250" y="-30" type="line"/>
      <point x="1108" y="1398" type="line"/>
      <point x="888" y="1486" type="line"/>
    </contour>
  </outline>
</glyph>
<glyph name="eight.pnum" format="1">
  <advance width="1408"/>
  <outline>
    <contour>
      <point x="90" y="412" type="qcurve" smooth="yes"/>
      <point x="90" y="526"/>
      <point x="282" y="757"/>
      <point x="413" y="788" type="qcurve"/>
      <point x="413" y="811" type="line"/>
      <point x="320" y="851"/>
      <point x="178" y="1025"/>
      <point x="178" y="1104" type="qcurve" smooth="yes"/>
      <point x="178" y="1267"/>
      <point x="465" y="1477"/>
      <point x="703" y="1477" type="qcurve" smooth="yes"/>
      <point x="942" y="1477"/>
      <point x="1230" y="1267"/>
      <point x="1230" y="1104" type="qcurve" smooth="yes"/>
      <point x="1230" y="1025"/>
      <point x="1087" y="850"/>
      <point x="994" y="810" type="qcurve"/>
      <point x="994" y="786" type="line"/>
      <point x="1129" y="755"/>
      <point x="1318" y="524"/>
      <point x="1318" y="412" type="qcurve" smooth="yes"/>
      <point x="1318" y="218"/>
      <point x="983" y="-30"/>
      <point x="704" y="-30" type="qcurve" smooth="yes"/>
      <point x="424" y="-30"/>
      <point x="90" y="218"/>
    </contour>
    <contour>
      <point x="511" y="1096" type="qcurve" smooth="yes"/>
      <point x="511" y="979"/>
      <point x="633" y="869"/>
      <point x="704" y="869" type="qcurve" smooth="yes"/>
      <point x="774" y="869"/>
      <point x="899" y="979"/>
      <point x="899" y="1096" type="qcurve" smooth="yes"/>
      <point x="899" y="1209"/>
      <point x="773" y="1323"/>
      <point x="703" y="1323" type="qcurve" smooth="yes"/>
      <point x="634" y="1323"/>
      <point x="511" y="1215"/>
    </contour>
    <contour>
      <point x="430" y="424" type="qcurve" smooth="yes"/>
      <point x="430" y="270"/>
      <point x="599" y="124"/>
      <point x="704" y="124" type="qcurve" smooth="yes"/>
      <point x="809" y="124"/>
      <point x="978" y="270"/>
      <point x="978" y="424" type="qcurve" smooth="yes"/>
      <point x="978" y="573"/>
      <point x="811" y="714"/>
      <point x="702" y="714" type="qcurve" smooth="yes"/>
      <point x="589" y="714"/>
      <point x="430" y="573"/>
    </contour>
  </outline>
</glyph>
<glyph name="four.pnum" format="1">
  <advance width="1348"/>
  <outline>
    <contour>
      <point x="756" y="0" type="line"/>
      <point x="756" y="401" type="line"/>
      <point x="756" y="418" type="line"/>
      <point x="756" y="1149" type="line"/>
      <point x="860" y="1149" type="line"/>
      <point x="340" y="500" type="line"/>
      <point x="905" y="500" type="line"/>
      <point x="937" y="500" type="line"/>
      <point x="1340" y="500" type="line"/>
      <point x="1340" y="348" type="line"/>
      <point x="-23" y="348" type="line"/>
      <point x="-23" y="447" type="line"/>
      <point x="804" y="1456" type="line"/>
      <point x="1098" y="1456" type="line"/>
      <point x="1098" y="0" type="line"/>
    </contour>
  </outline>
</glyph>
